<svg width="322" height="88" viewBox="0 0 322 88" fill="none" xmlns="http://www.w3.org/2000/svg">
<path d="M70.6615 1.75999H17.3385C7.76271 1.75999 0 9.49917 0 19.0459V68.9541C0 78.5008 7.76271 86.24 17.3385 86.24H70.6615C80.2373 86.24 88 78.5008 88 68.9541V19.0459C88 9.49917 80.2373 1.75999 70.6615 1.75999Z" fill="url(#paint0_linear_2_16)"/>
<path d="M17.3458 26.0265L35.9397 37.041L48.8771 29.2075V7.92L17.3458 26.0265Z" fill="#FE5E00"/>
<path d="M17.3458 26.0265V62.3188L35.8545 51.0892L35.9397 37.041L17.3458 26.0265Z" fill="#7F286D"/>
<path d="M35.8545 51.0892L48.8771 58.6454V80.08L17.3458 62.3187L35.8545 51.0892Z" fill="#4439A1"/>
<path d="M17.3458 26.0265V62.3188L4.84003 43.1878L17.3458 26.0265Z" fill="#FEB400"/>
<path d="M50.6775 35.5196L55.9024 44.1398H59.3327L54.193 35.5196H50.6775Z" fill="#FEB400"/>
<path d="M59.3327 44.1398L54.1021 52.7658H50.6775L55.8172 44.1398H59.3327Z" fill="#E58A08"/>
<path d="M57.362 31.5768L64.8643 43.9553H69.7826L62.4052 31.5768H57.362Z" fill="#6249BE"/>
<path d="M69.7826 43.9553L62.2803 56.3395H57.362L64.7394 43.9553H69.7826Z" fill="#3C2A7F"/>
<path d="M65.6708 26.7578L75.9673 43.7493H82.72L72.5938 26.7578H65.6708Z" fill="#A14198"/>
<path d="M82.72 43.7493L72.4234 60.7464H65.6708L75.8026 43.7493H82.72Z" fill="#7A2972"/>
<path d="M98 17H96V31H98V17Z" fill="#4439A1"/>
<path d="M98 31H96V45H98V31Z" fill="#7F286D"/>
<path d="M98 45H96V59H98V45Z" fill="#FE5E00"/>
<path d="M98 57H96V71H98V57Z" fill="#FEB400"/>
<path d="M110.382 40.6041C108.985 39.842 107.908 38.7646 107.146 37.3721C106.384 35.9795 106 34.375 106 32.5526V26.1974C106 24.3808 106.39 22.7705 107.163 21.378C107.936 19.9854 109.036 18.9081 110.457 18.1459C111.878 17.3837 113.516 17.0055 115.378 17.0055H119.17C120.957 17.0055 122.533 17.3723 123.896 18.1115C125.254 18.8508 126.314 19.8766 127.064 21.2061C127.815 22.5298 128.193 24.0656 128.193 25.8192H123.323C123.323 24.4381 122.939 23.3264 122.178 22.484C121.416 21.6416 120.413 21.2232 119.17 21.2232H115.378C114.043 21.2232 112.966 21.6989 112.158 22.6559C111.345 23.6129 110.944 24.8622 110.944 26.4037V32.3463C110.944 33.8879 111.339 35.1371 112.124 36.0941C112.909 37.0512 113.951 37.5268 115.235 37.5268H119.101C120.367 37.5268 121.398 37.0569 122.195 36.1113C122.991 35.1658 123.392 33.9222 123.392 32.3807H128.261C128.261 34.2489 127.878 35.8878 127.116 37.3033C126.354 38.7188 125.277 39.8133 123.896 40.5869C122.51 41.3606 120.912 41.7445 119.101 41.7445H115.235C113.396 41.7445 111.78 41.3663 110.388 40.6041H110.382Z" fill="white"/>
<path d="M131.338 17.2865H144.651C146.822 17.2865 148.569 17.8481 149.893 18.9771C151.216 20.106 151.88 21.5902 151.88 23.4355V25.8538C151.88 27.0515 151.525 28.0944 150.826 28.9827C150.122 29.8709 149.102 30.5414 147.767 31.0056V31.0744C148.529 31.5557 149.108 32.1116 149.503 32.7305C149.898 33.3494 150.282 34.2147 150.666 35.3207L152.671 41.4697H147.555L145.659 35.7333C145.35 34.7419 144.92 34.0084 144.37 33.5213C143.82 33.0399 143.144 32.7935 142.331 32.7935H136.281V41.4639H131.343V17.2808L131.338 17.2865ZM143.717 28.6847C144.72 28.6847 145.504 28.4268 146.077 27.9053C146.65 27.3896 146.937 26.7134 146.937 25.8824V23.636C146.937 22.9656 146.719 22.4326 146.295 22.0315C145.865 21.6303 145.293 21.424 144.576 21.424H136.276V28.679H143.717V28.6847Z" fill="white"/>
<path d="M156.561 40.57C155.919 39.974 155.593 39.1889 155.593 38.2204V17.2808H174.703V21.424H160.531V27.0228H173.626V31.166H160.531V37.315H174.703V41.4582H159.064C158.039 41.4582 157.202 41.1602 156.561 40.5585V40.57Z" fill="white"/>
<path d="M179.429 39.6244C177.951 38.2089 177.212 36.2319 177.212 33.699H182.082C182.082 34.8967 182.397 35.8365 183.033 36.5127C183.663 37.1946 184.539 37.5327 185.662 37.5327H189.632C190.68 37.5327 191.534 37.3207 192.193 36.8909C192.851 36.4668 193.178 35.8938 193.178 35.1832V34.0084C193.178 32.8795 192.319 32.1746 190.6 31.8996L184.018 30.8279C181.87 30.4841 180.243 29.8193 179.131 28.8394C178.02 27.8595 177.464 26.6102 177.464 25.0916V23.1547C177.464 21.934 177.802 20.8567 178.484 19.9226C179.166 18.9885 180.128 18.2722 181.383 17.7622C182.637 17.2579 184.087 17 185.731 17H189.775C191.328 17 192.697 17.3095 193.888 17.9341C195.08 18.5587 196.002 19.424 196.661 20.5415C197.314 21.659 197.646 22.9541 197.646 24.4269H192.777C192.777 23.4584 192.502 22.6848 191.952 22.0945C191.402 21.5042 190.675 21.212 189.769 21.212H185.725C184.722 21.212 183.92 21.4183 183.308 21.8309C182.7 22.2435 182.397 22.7994 182.397 23.487V24.4211C182.397 25.573 183.222 26.2893 184.866 26.5644L191.413 27.6704C193.585 28.0371 195.24 28.6904 196.386 29.6245C197.532 30.5586 198.104 31.762 198.104 33.2348V35.5156C198.104 36.7362 197.755 37.8193 197.05 38.7648C196.346 39.7104 195.361 40.4381 194.1 40.9596C192.84 41.4811 191.368 41.739 189.701 41.739H185.587C182.964 41.739 180.913 41.0284 179.435 39.6129L179.429 39.6244Z" fill="white"/>
<path d="M205.208 40.6043C203.81 39.8421 202.733 38.7648 201.971 37.3722C201.209 35.9797 200.826 34.3751 200.826 32.5528V26.1976C200.826 24.381 201.215 22.7707 201.988 21.3782C202.762 19.9856 203.862 18.9083 205.282 18.1461C206.703 17.3839 208.341 17.0057 210.203 17.0057H213.996C215.783 17.0057 217.358 17.3725 218.722 18.1117C220.079 18.851 221.139 19.8767 221.89 21.2062C222.64 22.53 223.018 24.0658 223.018 25.8194H218.149C218.149 24.4383 217.765 23.3266 217.003 22.4842C216.241 21.6418 215.239 21.2234 213.996 21.2234H210.203C208.869 21.2234 207.792 21.6991 206.984 22.6561C206.17 23.6131 205.769 24.8624 205.769 26.4039V32.3465C205.769 33.888 206.165 35.1373 206.949 36.0943C207.734 37.0513 208.777 37.527 210.06 37.527H213.927C215.193 37.527 216.224 37.0571 217.02 36.1115C217.817 35.166 218.218 33.9224 218.218 32.3809H223.087C223.087 34.2491 222.703 35.888 221.941 37.3035C221.179 38.7189 220.102 39.8135 218.722 40.5871C217.335 41.3607 215.737 41.7447 213.927 41.7447H210.06C208.221 41.7447 206.606 41.3665 205.214 40.6043H205.208Z" fill="white"/>
<path d="M227.126 40.57C226.484 39.974 226.157 39.1889 226.157 38.2204V17.2808H245.268V21.424H231.096V27.0228H244.191V31.166H231.096V37.315H245.268V41.4582H229.629C228.604 41.4582 227.767 41.1602 227.126 40.5585V40.57Z" fill="white"/>
<path d="M248.637 17.2865H253.036L265.06 33.7333V17.2865H269.89V41.4696H265.49L253.466 25.0228V41.4696H248.637V17.2865Z" fill="white"/>
<path d="M275.292 40.57C274.65 39.974 274.324 39.1889 274.324 38.2204V17.2808H286.273C288.181 17.2808 289.86 17.6246 291.303 18.318C292.747 19.0114 293.87 19.9856 294.666 21.2521C295.462 22.5186 295.863 23.9799 295.863 25.6417V32.4153C295.863 35.3838 295.061 37.6359 293.463 39.1717C291.865 40.7018 289.516 41.4697 286.411 41.4697H277.789C276.764 41.4697 275.928 41.1717 275.286 40.57H275.292ZM286.279 37.2577C287.809 37.2577 288.966 36.8336 289.751 35.9797C290.536 35.1259 290.931 33.8709 290.931 32.2147V25.8595C290.931 24.5472 290.49 23.4928 289.608 22.6962C288.725 21.8997 287.568 21.5043 286.136 21.5043H279.267V37.2577H286.279Z" fill="white"/>
<path d="M303.293 40.5871C301.85 39.8135 300.727 38.7304 299.93 37.3379C299.128 35.9453 298.733 34.3293 298.733 32.484V26.2664C298.733 24.4211 299.134 22.8051 299.93 21.4125C300.732 20.02 301.85 18.9369 303.293 18.1633C304.737 17.3897 306.398 17.0057 308.283 17.0057H312.075C313.96 17.0057 315.621 17.3897 317.065 18.1633C318.508 18.9369 319.631 20.02 320.427 21.4125C321.229 22.8051 321.625 24.4268 321.625 26.2664V32.484C321.625 34.3293 321.224 35.9453 320.427 37.3379C319.625 38.7304 318.508 39.8135 317.065 40.5871C315.621 41.3607 313.96 41.7447 312.075 41.7447H308.283C306.398 41.7447 304.737 41.3607 303.293 40.5871ZM312.081 37.5327C313.461 37.5327 314.578 37.0513 315.426 36.0829C316.274 35.1144 316.698 33.8479 316.698 32.2835V26.4784C316.698 24.9139 316.274 23.6475 315.426 22.679C314.578 21.7105 313.461 21.2292 312.081 21.2292H308.288C306.902 21.2292 305.791 21.7105 304.943 22.679C304.095 23.6475 303.671 24.9139 303.671 26.4784V32.2835C303.671 33.8479 304.095 35.1144 304.943 36.0829C305.791 37.0513 306.902 37.5327 308.288 37.5327H312.081Z" fill="white"/>
<path d="M110.44 69.8652C109.03 69.1031 107.942 68.0314 107.163 66.6332C106.39 65.2406 106 63.6361 106 61.8137V55.4585C106 53.6362 106.39 52.0316 107.163 50.6391C107.936 49.2466 109.036 48.1692 110.457 47.407C111.878 46.6449 113.516 46.2666 115.378 46.2666H119.388C121.175 46.2666 122.75 46.6105 124.114 47.3039C125.472 47.9973 126.531 48.9715 127.282 50.2379C128.032 51.5044 128.41 52.9657 128.41 54.6276H123.541C123.541 53.384 123.157 52.3812 122.395 51.619C121.633 50.8569 120.631 50.4786 119.388 50.4786H115.378C114.043 50.4786 112.966 50.9543 112.158 51.9113C111.345 52.8683 110.944 54.1176 110.944 55.6591V61.6017C110.944 63.1432 111.345 64.3925 112.141 65.3495C112.943 66.3065 113.997 66.7822 115.309 66.7822H119.531C120.745 66.7822 121.754 66.3581 122.556 65.5043C123.352 64.6504 123.753 63.5902 123.753 62.3238V61.5616H116.81V57.4184H128.617V62.3238C128.617 64.0028 128.233 65.5043 127.471 66.8166C126.709 68.1289 125.632 69.1546 124.251 69.8939C122.865 70.6331 121.295 70.9999 119.525 70.9999H115.303C113.464 70.9999 111.843 70.6217 110.434 69.8595L110.44 69.8652Z" fill="white"/>
<path d="M145.934 65.0978H136.556L134.339 70.731H129.184L138.985 46.5479H141.202C142.755 46.5479 143.803 47.2413 144.353 48.6224L153.261 70.7367H148.111L145.928 65.1036L145.934 65.0978ZM137.885 61.0864H144.611L141.282 52.3816H141.248L137.885 61.0864Z" fill="white"/>
<path d="M155.633 46.5422H160.032L168.224 60.9145L176.238 46.5422H180.638V70.7253H175.809V55.4188L170.55 64.6107C170.195 65.2354 169.828 65.6766 169.456 65.9402C169.083 66.2038 168.665 66.3356 168.184 66.3356H166.826L160.456 55.4188V70.7253H155.627V46.5422H155.633Z" fill="white"/>
<path d="M186.052 69.8313C185.41 69.2353 185.083 68.4502 185.083 67.4818V46.5422H204.194V50.6854H190.021V56.2842H203.117V60.4274H190.021V66.5763H204.194V70.7195H188.555C187.529 70.7195 186.693 70.4216 186.052 69.8198V69.8313Z" fill="white"/>
<path d="M208.914 68.88C207.436 67.4646 206.697 65.4875 206.697 62.9546H211.567C211.567 64.1523 211.882 65.0921 212.518 65.7683C213.148 66.4503 214.024 66.7884 215.147 66.7884H219.117C220.165 66.7884 221.019 66.5763 221.678 66.1465C222.336 65.7167 222.663 65.1494 222.663 64.4388V63.264C222.663 62.1351 221.804 61.4303 220.085 61.1552L213.503 60.0836C211.355 59.7397 209.728 59.075 208.616 58.095C207.505 57.1151 206.949 55.8658 206.949 54.3472V52.4103C206.949 51.1897 207.287 50.1123 207.969 49.1782C208.651 48.2441 209.613 47.5278 210.868 47.0178C212.122 46.5135 213.572 46.2556 215.216 46.2556H219.26C220.813 46.2556 222.182 46.5651 223.373 47.1897C224.565 47.8086 225.487 48.6797 226.146 49.7971C226.799 50.9146 227.131 52.2097 227.131 53.6825H222.262C222.262 52.714 221.987 51.9404 221.437 51.3501C220.887 50.7599 220.16 50.4676 219.254 50.4676H215.21C214.208 50.4676 213.406 50.6739 212.793 51.0865C212.185 51.4991 211.882 52.055 211.882 52.7427V53.6768C211.882 54.8286 212.707 55.5449 214.351 55.82L220.899 56.926C223.07 57.2928 224.725 57.946 225.871 58.8801C227.017 59.8142 227.59 61.0176 227.59 62.4904V64.7712C227.59 65.9918 227.24 67.0749 226.536 68.0204C225.831 68.966 224.846 69.6938 223.585 70.2153C222.319 70.731 220.853 70.9946 219.186 70.9946H215.073C212.449 70.9946 210.398 70.284 208.92 68.8686L208.914 68.88Z" fill="white"/>
<defs>
<linearGradient id="paint0_linear_2_16" x1="44" y1="86.24" x2="44" y2="3.93632" gradientUnits="userSpaceOnUse">
<stop stop-color="#D1D1D1"/>
<stop offset="1" stop-color="#EEEEEE"/>
</linearGradient>
</defs>
</svg>
