<svg width="25" height="25" viewBox="0 0 25 25" fill="none" xmlns="http://www.w3.org/2000/svg">
<g clip-path="url(#clip0_9771_878)">
<path fill-rule="evenodd" clip-rule="evenodd" d="M23.5579 24.342H16.3269C15.8279 24.342 15.4229 23.937 15.4229 23.438C15.4229 22.939 15.8279 22.534 16.3269 22.534H22.6539V16.207C22.6539 15.708 23.0589 15.303 23.5579 15.303C24.0569 15.303 24.4619 15.708 24.4619 16.207V23.438C24.4619 23.937 24.0569 24.342 23.5579 24.342ZM9.09691 24.342H1.86591C1.36691 24.342 0.961914 23.937 0.961914 23.438V16.207C0.961914 15.708 1.36691 15.303 1.86591 15.303C2.36491 15.303 2.76991 15.708 2.76991 16.207V22.534H9.09691C9.59591 22.534 9.99991 22.939 9.99991 23.438C9.99991 23.937 9.59591 24.342 9.09691 24.342ZM23.5579 9.87998C23.0589 9.87998 22.6539 9.47498 22.6539 8.97598V2.64898H16.3269C15.8279 2.64898 15.4229 2.24498 15.4229 1.74498C15.4229 1.24598 15.8279 0.84198 16.3269 0.84198H23.5579C24.0569 0.84198 24.4619 1.24598 24.4619 1.74498V8.97598C24.4619 9.47498 24.0569 9.87998 23.5579 9.87998ZM1.86591 9.87998C1.36691 9.87998 0.961914 9.47498 0.961914 8.97598V1.74498C0.961914 1.24598 1.36691 0.84198 1.86591 0.84198H9.09691C9.59591 0.84198 9.99991 1.24598 9.99991 1.74498C9.99991 2.24498 9.59591 2.64898 9.09691 2.64898H2.76991V8.97598C2.76991 9.47498 2.36491 9.87998 1.86591 9.87998Z" fill="white"/>
</g>
<defs>
<clipPath id="clip0_9771_878">
<rect width="25" height="25" fill="white"/>
</clipPath>
</defs>
</svg>
